<?xml version="1.0" encoding="UTF-8"?>
<svg id="Layer_1" xmlns="http://www.w3.org/2000/svg" version="1.1" viewBox="0 0 1080 1080">
  <!-- Generator: Adobe Illustrator 29.5.0, SVG Export Plug-In . SVG Version: 2.1.0 Build 137)  -->
  <defs>
    <style>
      .st0 {
        opacity: .3;
      }

      .st1 {
        opacity: .7;
      }
    </style>
  </defs>
  <g class="st1">
    <path d="M272.1,77.4L5,231.6l267.1,154.2s272.5-157.1,267-154.2c-5.3-3-267-154.2-267-154.2h0Z"/>
    <polygon points="272.1 694.2 272.1 1002.6 539.2 848.4 539.2 540 272.1 694.2"/>
    <polygon points="539.2 231.6 539.2 231.6 539.2 540 539.2 540 806.3 694.2 806.3 385.8 806.3 385.8 806.3 77.4 539.2 231.6"/>
    <polygon points="806.3 694.2 806.3 1002.6 1073.4 848.4 1073.4 540 806.3 694.2"/>
  </g>
  <g class="st0">
    <polygon points="272.1 694.2 539.2 540 272.1 385.8 272.1 694.2"/>
    <polygon points="5 848.4 5 848.4 272.1 1002.6 272.1 694.2 5 848.4"/>
    <polygon points="1073.4 540 806.3 385.8 806.3 694.2 1073.4 540"/>
  </g>
  <g>
    <polygon points="5 231.6 5 231.6 5 540 5 540 272.1 694.2 272.1 385.8 5 231.6"/>
    <polygon points="272.1 385.8 539.2 540 539.2 540 539.2 231.6 272.1 385.8"/>
    <polygon points="539.2 540 539.2 540 539.2 540 539.2 848.4 806.3 1002.6 806.3 694.2 539.2 540"/>
  </g>
</svg>